<mxfile host="app.diagrams.net" modified="2021-05-30T23:08:57.875Z" agent="5.0 (Windows NT 10.0; Win64; x64) AppleWebKit/537.36 (KHTML, like Gecko) Chrome/90.0.4430.93 Safari/537.36" etag="cnmrLnzl1ciNfd6u9e2V" version="14.7.3" type="github">
  <diagram id="xoIsQrtZGImy5Wc9s_GH" name="Page-1">
    <mxGraphModel dx="1422" dy="762" grid="1" gridSize="10" guides="1" tooltips="1" connect="1" arrows="1" fold="1" page="1" pageScale="1" pageWidth="827" pageHeight="1169" math="0" shadow="0">
      <root>
        <mxCell id="0" />
        <mxCell id="1" parent="0" />
        <mxCell id="xtJ1UxK4hOlGfN6x0f-v-1" value="" style="rounded=0;whiteSpace=wrap;html=1;fillColor=#EDFEFF;" parent="1" vertex="1">
          <mxGeometry x="140" y="240" width="550" height="290" as="geometry" />
        </mxCell>
        <mxCell id="xtJ1UxK4hOlGfN6x0f-v-2" value="" style="endArrow=none;html=1;entryX=1.004;entryY=0.164;entryDx=0;entryDy=0;entryPerimeter=0;exitX=0.001;exitY=0.173;exitDx=0;exitDy=0;exitPerimeter=0;" parent="1" source="xtJ1UxK4hOlGfN6x0f-v-1" target="xtJ1UxK4hOlGfN6x0f-v-1" edge="1">
          <mxGeometry width="50" height="50" relative="1" as="geometry">
            <mxPoint x="138" y="288" as="sourcePoint" />
            <mxPoint x="440" y="370" as="targetPoint" />
            <Array as="points">
              <mxPoint x="220" y="290" />
            </Array>
          </mxGeometry>
        </mxCell>
        <mxCell id="xtJ1UxK4hOlGfN6x0f-v-4" value="冻结业务流程" style="text;html=1;strokeColor=none;fillColor=none;align=center;verticalAlign=middle;whiteSpace=wrap;rounded=0;" parent="1" vertex="1">
          <mxGeometry x="150" y="260" width="90" height="10" as="geometry" />
        </mxCell>
        <mxCell id="xtJ1UxK4hOlGfN6x0f-v-5" value="" style="endArrow=none;html=1;" parent="1" edge="1">
          <mxGeometry width="50" height="50" relative="1" as="geometry">
            <mxPoint x="170" y="290" as="sourcePoint" />
            <mxPoint x="171" y="530" as="targetPoint" />
            <Array as="points">
              <mxPoint x="170" y="360" />
              <mxPoint x="170" y="440" />
            </Array>
          </mxGeometry>
        </mxCell>
        <mxCell id="xtJ1UxK4hOlGfN6x0f-v-6" value="阶段" style="text;html=1;strokeColor=none;fillColor=none;align=center;verticalAlign=middle;whiteSpace=wrap;rounded=0;rotation=-90;" parent="1" vertex="1">
          <mxGeometry x="140" y="410" width="40" height="20" as="geometry" />
        </mxCell>
        <mxCell id="xtJ1UxK4hOlGfN6x0f-v-7" value="" style="endArrow=none;html=1;" parent="1" source="xtJ1UxK4hOlGfN6x0f-v-1" edge="1">
          <mxGeometry width="50" height="50" relative="1" as="geometry">
            <mxPoint x="330" y="340" as="sourcePoint" />
            <mxPoint x="170" y="310" as="targetPoint" />
            <Array as="points">
              <mxPoint x="690" y="310" />
              <mxPoint x="190" y="310" />
            </Array>
          </mxGeometry>
        </mxCell>
        <mxCell id="xtJ1UxK4hOlGfN6x0f-v-9" value="" style="endArrow=none;html=1;exitX=0.139;exitY=1;exitDx=0;exitDy=0;exitPerimeter=0;" parent="1" source="xtJ1UxK4hOlGfN6x0f-v-1" edge="1">
          <mxGeometry width="50" height="50" relative="1" as="geometry">
            <mxPoint x="220" y="530" as="sourcePoint" />
            <mxPoint x="220" y="290" as="targetPoint" />
          </mxGeometry>
        </mxCell>
        <mxCell id="xtJ1UxK4hOlGfN6x0f-v-10" value="客户" style="text;html=1;strokeColor=none;fillColor=none;align=center;verticalAlign=middle;whiteSpace=wrap;rounded=0;" parent="1" vertex="1">
          <mxGeometry x="175" y="290" width="40" height="20" as="geometry" />
        </mxCell>
        <mxCell id="xtJ1UxK4hOlGfN6x0f-v-11" value="" style="rounded=1;whiteSpace=wrap;html=1;fillColor=#CCFFFF;" parent="1" vertex="1">
          <mxGeometry x="172.5" y="320" width="45" height="20" as="geometry" />
        </mxCell>
        <mxCell id="xtJ1UxK4hOlGfN6x0f-v-12" value="申购" style="text;html=1;strokeColor=none;fillColor=none;align=center;verticalAlign=middle;whiteSpace=wrap;rounded=0;" parent="1" vertex="1">
          <mxGeometry x="175" y="320" width="40" height="20" as="geometry" />
        </mxCell>
        <mxCell id="xtJ1UxK4hOlGfN6x0f-v-13" value="" style="endArrow=none;html=1;" parent="1" edge="1">
          <mxGeometry width="50" height="50" relative="1" as="geometry">
            <mxPoint x="340" y="530" as="sourcePoint" />
            <mxPoint x="340" y="310" as="targetPoint" />
            <Array as="points">
              <mxPoint x="340" y="530" />
            </Array>
          </mxGeometry>
        </mxCell>
        <mxCell id="xtJ1UxK4hOlGfN6x0f-v-14" value="代销理财" style="text;html=1;strokeColor=none;fillColor=none;align=center;verticalAlign=middle;whiteSpace=wrap;rounded=0;" parent="1" vertex="1">
          <mxGeometry x="250" y="290" width="50" height="20" as="geometry" />
        </mxCell>
        <mxCell id="xtJ1UxK4hOlGfN6x0f-v-15" value="业务逻辑处理" style="rounded=1;whiteSpace=wrap;html=1;fillColor=#CCFFFF;" parent="1" vertex="1">
          <mxGeometry x="250" y="320" width="80" height="20" as="geometry" />
        </mxCell>
        <mxCell id="xtJ1UxK4hOlGfN6x0f-v-17" value="" style="endArrow=classic;html=1;exitX=1.049;exitY=0.483;exitDx=0;exitDy=0;exitPerimeter=0;" parent="1" source="xtJ1UxK4hOlGfN6x0f-v-12" edge="1">
          <mxGeometry width="50" height="50" relative="1" as="geometry">
            <mxPoint x="215" y="330" as="sourcePoint" />
            <mxPoint x="250.5" y="329.99" as="targetPoint" />
          </mxGeometry>
        </mxCell>
        <mxCell id="xtJ1UxK4hOlGfN6x0f-v-18" value="二类户" style="text;html=1;strokeColor=none;fillColor=none;align=center;verticalAlign=middle;whiteSpace=wrap;rounded=0;" parent="1" vertex="1">
          <mxGeometry x="420" y="290" width="50" height="20" as="geometry" />
        </mxCell>
        <mxCell id="xtJ1UxK4hOlGfN6x0f-v-19" value="冻结" style="rounded=1;whiteSpace=wrap;html=1;fillColor=#CCFFFF;" parent="1" vertex="1">
          <mxGeometry x="385" y="320" width="120" height="20" as="geometry" />
        </mxCell>
        <mxCell id="xtJ1UxK4hOlGfN6x0f-v-20" value="" style="endArrow=classic;html=1;exitX=1;exitY=0.5;exitDx=0;exitDy=0;entryX=0;entryY=0.5;entryDx=0;entryDy=0;" parent="1" source="xtJ1UxK4hOlGfN6x0f-v-15" target="xtJ1UxK4hOlGfN6x0f-v-19" edge="1">
          <mxGeometry width="50" height="50" relative="1" as="geometry">
            <mxPoint x="350" y="400" as="sourcePoint" />
            <mxPoint x="400" y="350" as="targetPoint" />
          </mxGeometry>
        </mxCell>
        <mxCell id="xtJ1UxK4hOlGfN6x0f-v-21" value="余额是否充足" style="rhombus;whiteSpace=wrap;html=1;fillColor=#CCFFFF;" parent="1" vertex="1">
          <mxGeometry x="405" y="360" width="80" height="70" as="geometry" />
        </mxCell>
        <mxCell id="xtJ1UxK4hOlGfN6x0f-v-22" value="" style="endArrow=classic;html=1;exitX=0.5;exitY=1;exitDx=0;exitDy=0;entryX=0.5;entryY=0;entryDx=0;entryDy=0;" parent="1" source="xtJ1UxK4hOlGfN6x0f-v-19" target="xtJ1UxK4hOlGfN6x0f-v-21" edge="1">
          <mxGeometry width="50" height="50" relative="1" as="geometry">
            <mxPoint x="430" y="390" as="sourcePoint" />
            <mxPoint x="480" y="340" as="targetPoint" />
          </mxGeometry>
        </mxCell>
        <mxCell id="xtJ1UxK4hOlGfN6x0f-v-23" value="终止冻结" style="rounded=1;whiteSpace=wrap;html=1;fillColor=#CCFFFF;" parent="1" vertex="1">
          <mxGeometry x="570" y="377.5" width="70" height="35" as="geometry" />
        </mxCell>
        <mxCell id="xtJ1UxK4hOlGfN6x0f-v-24" value="" style="endArrow=classic;html=1;exitX=1;exitY=0.5;exitDx=0;exitDy=0;" parent="1" source="xtJ1UxK4hOlGfN6x0f-v-21" edge="1">
          <mxGeometry width="50" height="50" relative="1" as="geometry">
            <mxPoint x="520" y="440" as="sourcePoint" />
            <mxPoint x="570" y="395" as="targetPoint" />
          </mxGeometry>
        </mxCell>
        <mxCell id="xtJ1UxK4hOlGfN6x0f-v-25" value="否" style="text;html=1;strokeColor=none;fillColor=none;align=center;verticalAlign=middle;whiteSpace=wrap;rounded=0;" parent="1" vertex="1">
          <mxGeometry x="510" y="375" width="40" height="20" as="geometry" />
        </mxCell>
        <mxCell id="xtJ1UxK4hOlGfN6x0f-v-27" value="冻结，并登记冻结流水，冻结流水登记薄" style="rounded=0;whiteSpace=wrap;html=1;fillColor=#CCFFFF;" parent="1" vertex="1">
          <mxGeometry x="385" y="470" width="120" height="40" as="geometry" />
        </mxCell>
        <mxCell id="xtJ1UxK4hOlGfN6x0f-v-28" value="" style="endArrow=classic;html=1;exitX=0.5;exitY=1;exitDx=0;exitDy=0;entryX=0.5;entryY=0;entryDx=0;entryDy=0;" parent="1" source="xtJ1UxK4hOlGfN6x0f-v-21" target="xtJ1UxK4hOlGfN6x0f-v-27" edge="1">
          <mxGeometry width="50" height="50" relative="1" as="geometry">
            <mxPoint x="420" y="480" as="sourcePoint" />
            <mxPoint x="470" y="430" as="targetPoint" />
          </mxGeometry>
        </mxCell>
        <mxCell id="xtJ1UxK4hOlGfN6x0f-v-29" value="是" style="text;html=1;strokeColor=none;fillColor=none;align=center;verticalAlign=middle;whiteSpace=wrap;rounded=0;" parent="1" vertex="1">
          <mxGeometry x="405" y="440" width="40" height="20" as="geometry" />
        </mxCell>
      </root>
    </mxGraphModel>
  </diagram>
</mxfile>
